<svg xmlns="http://www.w3.org/2000/svg" viewBox="0 0 383 60" width="383" height="60">
  <g transform="translate(2 52)">
  <path d="M19.857534246575344 0.6575342465753425Q14.794520547945208 0.6575342465753425 11.013698630136988 -1.1178082191780825Q7.232876712328768 -2.8931506849315074 5.161643835616439 -6.147945205479453Q3.0904109589041098 -9.402739726027399 3.0904109589041098 -13.808219178082194H12.690410958904112Q12.690410958904112 -11.112328767123289 14.630136986301373 -9.5013698630137Q16.569863013698633 -7.890410958904111 19.857534246575344 -7.890410958904111Q23.079452054794523 -7.890410958904111 24.887671232876713 -9.435616438356167Q26.695890410958906 -10.980821917808221 26.695890410958906 -13.545205479452056Q26.695890410958906 -15.583561643835619 25.51232876712329 -17.19452054794521Q24.328767123287673 -18.805479452054797 22.027397260273975 -19.33150684931507L16.175342465753427 -20.71232876712329Q10.52054794520548 -22.027397260273975 7.200000000000001 -25.808219178082197Q3.879452054794521 -29.589041095890416 3.879452054794521 -34.849315068493155Q3.879452054794521 -41.29315068493151 8.054794520547945 -44.97534246575343Q12.230136986301371 -48.657534246575345 19.46301369863014 -48.657534246575345Q26.695890410958906 -48.657534246575345 30.969863013698635 -44.942465753424656Q35.24383561643836 -41.227397260273975 35.24383561643836 -34.91506849315069H25.64383561643836Q25.64383561643836 -37.41369863013699 24.000000000000004 -38.827397260273976Q22.356164383561648 -40.24109589041096 19.46301369863014 -40.24109589041096Q16.635616438356166 -40.24109589041096 15.057534246575344 -38.86027397260274Q13.479452054794523 -37.47945205479453 13.479452054794523 -35.178082191780824Q13.479452054794523 -31.430136986301374 18.016438356164386 -30.378082191780827L24.065753424657537 -28.997260273972607Q29.72054794520548 -27.747945205479454 33.04109589041096 -23.57260273972603Q36.36164383561644 -19.397260273972606 36.36164383561644 -13.545205479452056Q36.36164383561644 -9.27123287671233 34.35616438356165 -6.049315068493152Q32.350684931506855 -2.827397260273973 28.635616438356166 -1.0849315068493153Q24.92054794520548 0.6575342465753425 19.857534246575344 0.6575342465753425Z M57.2054794520548 0.0V-17.095890410958905L43.397260273972606 -48.00000000000001H53.72054794520548L59.76986301369864 -33.53424657534247Q60.69041095890411 -31.36438356164384 61.38082191780822 -28.93150684931507Q62.07123287671233 -26.498630136986304 62.33424657534247 -24.986301369863018Q62.66301369863014 -26.498630136986304 63.28767123287672 -28.93150684931507Q63.91232876712329 -31.36438356164384 64.76712328767124 -33.53424657534247L70.61917808219178 -48.00000000000001H80.87671232876713L67.06849315068493 -17.095890410958905V0.0Z M87.58356164383562 0.0V-48.00000000000001H99.6164383561644L104.48219178082192 -27.484931506849318L109.34794520547946 -48.00000000000001H121.51232876712331V0.0H112.50410958904111V-18.41095890410959Q112.50410958904111 -25.64383561643836 113.12876712328767 -32.31780821917809Q113.75342465753425 -38.991780821917814 114.4109589041096 -44.05479452054795L108.36164383561645 -20.38356164383562H100.47123287671234L94.55342465753425 -43.46301369863014Q95.21095890410959 -39.18904109589042 95.9013698630137 -32.58082191780822Q96.59178082191781 -25.97260273972603 96.59178082191781 -18.41095890410959V0.0Z M131.57260273972602 0.0V-48.00000000000001H147.94520547945206Q153.00821917808221 -48.00000000000001 156.7890410958904 -46.093150684931516Q160.56986301369864 -44.18630136986302 162.64109589041095 -40.76712328767124Q164.7123287671233 -37.347945205479455 164.7123287671233 -32.74520547945206Q164.7123287671233 -28.208219178082196 162.6082191780822 -24.756164383561647Q160.5041095890411 -21.304109589041097 156.75616438356167 -19.397260273972606Q153.00821917808221 -17.49041095890411 147.94520547945206 -17.49041095890411H141.43561643835616V0.0ZM141.43561643835616 -26.038356164383565H147.94520547945206Q151.1013698630137 -26.038356164383565 152.97534246575344 -27.945205479452056Q154.84931506849315 -29.85205479452055 154.84931506849315 -32.74520547945206Q154.84931506849315 -35.638356164383566 152.97534246575344 -37.54520547945206Q151.1013698630137 -39.45205479452055 147.94520547945206 -39.45205479452055H141.43561643835616Z M189.36986301369865 0.6575342465753425Q182.1369863013699 0.6575342465753425 177.86301369863014 -3.4191780821917814Q173.58904109589042 -7.495890410958905 173.58904109589042 -14.465753424657535V-33.53424657534247Q173.58904109589042 -40.56986301369864 177.86301369863014 -44.613698630136994Q182.1369863013699 -48.657534246575345 189.36986301369865 -48.657534246575345Q196.6027397260274 -48.657534246575345 200.87671232876716 -44.613698630136994Q205.15068493150687 -40.56986301369864 205.15068493150687 -33.53424657534247V-14.465753424657535Q205.15068493150687 -7.495890410958905 200.87671232876716 -3.4191780821917814Q196.6027397260274 0.6575342465753425 189.36986301369865 0.6575342465753425ZM189.36986301369865 -7.890410958904111Q195.28767123287673 -7.890410958904111 195.28767123287673 -13.808219178082194V-34.19178082191781Q195.28767123287673 -40.109589041095894 189.36986301369865 -40.109589041095894Q183.45205479452056 -40.109589041095894 183.45205479452056 -34.19178082191781V-13.808219178082194Q183.45205479452056 -7.890410958904111 189.36986301369865 -7.890410958904111Z M216.98630136986304 0.0V-8.876712328767125L234.6082191780822 -39.12328767123288H217.5123287671233V-48.00000000000001H245.85205479452057V-39.12328767123288L228.16438356164386 -8.876712328767125H246.57534246575347V0.0Z M259.7260273972603 0.0V-8.876712328767125H269.26027397260276V-39.12328767123288H259.7260273972603V-48.00000000000001H288.6575342465754V-39.12328767123288H279.1232876712329V-8.876712328767125H288.6575342465754V0.0Z M316.6027397260274 0.6575342465753425Q309.30410958904105 0.6575342465753425 305.06301369863013 -3.2876712328767126Q300.82191780821915 -7.232876712328768 300.82191780821915 -14.07123287671233V-48.00000000000001H310.6849315068493V-14.136986301369864Q310.6849315068493 -11.112328767123289 312.2301369863013 -9.5013698630137Q313.7753424657534 -7.890410958904111 316.6027397260274 -7.890410958904111Q319.3643835616438 -7.890410958904111 320.94246575342464 -9.5013698630137Q322.52054794520546 -11.112328767123289 322.52054794520546 -14.136986301369864V-48.00000000000001H332.3835616438356V-14.07123287671233Q332.3835616438356 -7.2986301369863025 328.14246575342463 -3.32054794520548Q323.90136986301366 0.6575342465753425 316.6027397260274 0.6575342465753425Z M342.0493150684931 0.0V-48.00000000000001H354.08219178082186L358.9479452054794 -27.484931506849318L363.81369863013697 -48.00000000000001H375.9780821917808V0.0H366.9698630136986V-18.41095890410959Q366.9698630136986 -25.64383561643836 367.5945205479452 -32.31780821917809Q368.2191780821918 -38.991780821917814 368.8767123287671 -44.05479452054795L362.8273972602739 -20.38356164383562H354.9369863013698L349.01917808219173 -43.46301369863014Q349.6767123287671 -39.18904109589042 350.36712328767123 -32.58082191780822Q351.0575342465753 -25.97260273972603 351.0575342465753 -18.41095890410959V0.0Z" fill="#f0ece4"/>
  </g>
</svg>
