<svg xmlns="http://www.w3.org/2000/svg" viewBox="0 0 499 52" width="499" height="52">
  <rect x="0" y="0" width="41.6" height="10.4" fill="#1a1a18"/>
  <rect x="0" y="10.4" width="10.4" height="10.4" fill="#1a1a18"/>
  <rect x="0" y="20.8" width="41.6" height="10.4" fill="#1a1a18"/>
  <rect x="31.2" y="31.2" width="10.4" height="10.4" fill="#1a1a18"/>
  <rect x="0" y="41.6" width="41.6" height="10.4" fill="#1a1a18"/>
  <rect x="57.2" y="0" width="10.4" height="20.8" fill="#1a1a18"/>
  <rect x="88.4" y="0" width="10.4" height="20.8" fill="#1a1a18"/>
  <rect x="67.6" y="20.8" width="20.8" height="10.4" fill="#1a1a18"/>
  <rect x="72.8" y="31.2" width="10.4" height="20.8" fill="#1a1a18"/>
  <rect x="114.4" y="0" width="10.4" height="52" fill="#1a1a18"/>
  <rect x="156" y="0" width="10.4" height="52" fill="#1a1a18"/>
  <rect x="124.8" y="0" width="31.2" height="10.4" fill="#1a1a18"/>
  <rect x="135.2" y="10.4" width="10.4" height="20.8" fill="#1a1a18"/>
  <rect x="182" y="0" width="10.4" height="52" fill="#1a1a18"/>
  <rect x="192.4" y="0" width="31.2" height="10.4" fill="#1a1a18"/>
  <rect x="213.2" y="10.4" width="10.4" height="10.4" fill="#1a1a18"/>
  <rect x="192.4" y="20.8" width="31.2" height="10.4" fill="#1a1a18"/>
  <rect x="239.2" y="0" width="41.6" height="10.4" fill="#1a1a18"/>
  <rect x="239.2" y="41.6" width="41.6" height="10.4" fill="#1a1a18"/>
  <rect x="239.2" y="10.4" width="10.4" height="31.2" fill="#1a1a18"/>
  <rect x="270.4" y="10.4" width="10.4" height="31.2" fill="#1a1a18"/>
  <rect x="353.6" y="0" width="20.8" height="10.4" fill="#1a1a18"/>
  <rect x="358.8" y="10.4" width="10.4" height="31.2" fill="#1a1a18"/>
  <rect x="353.6" y="41.6" width="20.8" height="10.4" fill="#1a1a18"/>
  <rect x="390" y="0" width="10.4" height="41.6" fill="#1a1a18"/>
  <rect x="421.2" y="0" width="10.4" height="41.6" fill="#1a1a18"/>
  <rect x="390" y="41.6" width="41.6" height="10.4" fill="#1a1a18"/>
  <rect x="447.2" y="0" width="10.4" height="52" fill="#1a1a18"/>
  <rect x="488.8" y="0" width="10.4" height="52" fill="#1a1a18"/>
  <rect x="457.6" y="0" width="31.2" height="10.4" fill="#1a1a18"/>
  <rect x="468" y="10.4" width="10.4" height="20.8" fill="#1a1a18"/>
  <rect x="296.4" y="0" width="41.6" height="10.4" fill="#c4532a"/>
  <rect x="296.4" y="41.6" width="41.6" height="10.4" fill="#c4532a"/>
  <rect x="322.4" y="10.4" width="10.4" height="10.4" fill="#c4532a"/>
  <rect x="312" y="20.8" width="10.4" height="10.4" fill="#c4532a"/>
  <rect x="301.6" y="31.2" width="10.4" height="10.4" fill="#c4532a"/>
</svg>
